<?xml version="1.0" standalone="no"?>
<!DOCTYPE svg PUBLIC "-//W3C//DTD SVG 20010904//EN"
 "http://www.w3.org/TR/2001/REC-SVG-20010904/DTD/svg10.dtd">
<svg version="1.0" xmlns="http://www.w3.org/2000/svg"
 width="512.000000pt" height="512.000000pt" viewBox="0 0 512.000000 512.000000"
 preserveAspectRatio="xMidYMid meet">
<metadata>
Created by potrace 1.11, written by Peter Selinger 2001-2013
</metadata>
<g transform="translate(0.000000,512.000000) scale(0.100000,-0.100000)"
fill="#000000" stroke="none">
<path d="M710 2775 l0 -865 245 0 245 0 0 358 c1 297 3 354 14 340 7 -10 105
-171 217 -358 l204 -339 268 -1 c159 0 267 4 267 9 0 5 -46 83 -102 173 -259
416 -448 728 -448 739 0 5 58 102 128 217 71 114 181 291 245 394 63 103 112
189 109 192 -3 3 -116 6 -252 6 -223 0 -248 -2 -262 -17 -15 -18 -297 -470
-354 -568 l-29 -50 -5 315 -5 315 -242 3 -243 2 0 -865z"/>
<path d="M2226 3631 c-3 -5 24 -121 60 -257 36 -137 78 -298 94 -359 16 -60
43 -164 60 -230 17 -66 45 -172 61 -235 17 -63 39 -146 49 -185 10 -38 34
-131 53 -205 20 -74 38 -142 41 -150 3 -8 10 -34 16 -57 l11 -43 238 0 239 0
17 68 c17 66 38 150 95 387 16 66 49 199 73 295 51 203 37 215 112 -95 25
-104 52 -212 59 -240 8 -27 34 -132 58 -232 l43 -183 238 0 c237 0 237 0 247
23 5 12 32 110 59 217 28 107 125 479 216 827 91 348 165 639 165 648 0 14
-29 15 -257 13 l-256 -3 -59 -235 c-33 -129 -70 -278 -83 -330 -13 -52 -35
-140 -49 -195 -14 -55 -26 -108 -26 -117 0 -39 -17 -14 -34 50 -98 379 -203
775 -215 805 l-11 27 -167 -2 -167 -3 -22 -85 c-12 -47 -34 -128 -48 -180 -14
-52 -54 -206 -90 -343 -36 -136 -68 -257 -72 -270 -9 -27 0 -58 -134 472 -55
216 -103 397 -106 402 -7 12 -501 12 -508 0z"/>
</g>
</svg>
